<?xml version="1.0" encoding="utf-8"?>
<!-- Generator: Adobe Illustrator 16.0.3, SVG Export Plug-In . SVG Version: 6.00 Build 0)  -->
<!DOCTYPE svg PUBLIC "-//W3C//DTD SVG 1.1//EN" "http://www.w3.org/Graphics/SVG/1.1/DTD/svg11.dtd">
<svg version="1.1" id="Layer_1" xmlns="http://www.w3.org/2000/svg" xmlns:xlink="http://www.w3.org/1999/xlink" x="0px" y="0px"
	 width="283.465px" height="156.969px" viewBox="0 0 283.465 156.969" enable-background="new 0 0 283.465 156.969"
	 xml:space="preserve">
<g>
	<g>
		<path fill="#0070BA" d="M85.011,39.222C82.404,27.804,75.867,18.517,74.965,17c-1.421,2.132-6.637,10.329-9.288,19.429
			c-2.894,10.139-3.318,19.138-2.32,28c0.992,8.864,4.737,17.957,4.737,17.957c1.99,4.776,4.974,9.887,6.917,12.4
			c2.842-3.695,9.384-14.718,11.422-29.126C87.568,57.654,87.617,50.643,85.011,39.222z M74.965,91.946
			c-1.279-2.416-3.27-7.007-3.46-14.106c-0.048-6.869,2.702-12.748,3.506-13.977c0.713,1.229,3.081,6.349,3.363,13.36
			C78.566,84.087,76.292,89.483,74.965,91.946z M84.253,58.604c-0.097,4.355-0.618,8.952-1.281,11.701
			c0.239-4.737-0.33-11.418-1.421-16.631c-1.09-5.213-4.171-13.93-6.634-17.958c-2.274,3.837-5.072,11.373-6.539,17.91
			c-1.473,6.542-1.518,14.452-1.518,16.825c-0.388-2.001-1.369-9.131-1.09-16.304c0.228-5.914,1.611-11.988,2.371-14.783
			c2.888-9.335,6.161-15.302,6.776-16.25c0.615,0.949,4.737,8.293,6.873,16.016C83.918,46.85,84.346,54.244,84.253,58.604z"/>
		<path fill="#0070BA" d="M79.392,97.447H59.561v13.31c0.017-0.019,0.032-0.038,0.049-0.055c4.673-4.672,12.25-4.672,16.923,0
			c4.672,4.673,4.672,12.25,0,16.921c-0.02,0.021-0.042,0.037-0.06,0.057c0,0,0,0.003-0.002,0.004
			c-0.023,0.023-0.048,0.041-0.07,0.063c-4.659,4.628-10.75,6.943-16.84,6.943c-6.116,0-12.234-2.332-16.901-7
			c-8.224-8.223-9.197-20.948-2.929-30.242c0.846-1.255,1.821-2.448,2.929-3.559c4.667-4.665,10.786-6.995,16.901-6.995V54.904
			c-23.507,0-42.562,19.056-42.562,42.543c0,23.506,19.055,42.561,42.562,42.561c12.256,0,23.296-5.184,31.063-13.469V97.447H79.392
			z"/>
	</g>
	<g>
		<path fill="#0070BA" d="M95.663,54.904h16.225v5.275h-7.718v37.258h-8.507V54.904z"/>
		<path fill="#0070BA" d="M121.072,81.458l1.458-21.282h0.488l1.456,21.282H121.072z M111.655,97.438h8.323l0.79-11.304h4.013
			l0.79,11.304h8.326l-4.438-42.533h-13.367L111.655,97.438z"/>
		<path fill="#0070BA" d="M145.078,82.548v8.01c0,1.094,0.849,1.398,1.335,1.398c0.793,0,1.338-0.668,1.338-1.398v-9.892
			c0-1.337-0.244-2.793-3.404-2.793h-3.462v-4.679h3.584c2.43,0,3.282-0.548,3.282-3.161v-8.458c0-0.728-0.545-1.396-1.338-1.396
			c-0.486,0-1.335,0.303-1.335,1.396v6.938h-8.506v-6.015c0-2.979,0.364-7.595,6.317-7.595h7.053c5.958,0,6.32,4.616,6.32,7.595
			v6.806c0,4.618-3.22,5.895-5.771,5.771v0.427c5.711-0.123,5.771,4.252,5.771,5.771v8.569c0,2.976-0.362,7.595-6.32,7.595h-7.053
			c-5.954,0-6.317-4.619-6.317-7.595v-7.294H145.078z"/>
		<path fill="#0070BA" d="M160.733,54.904h19.691v42.533h-8.504V60.18h-2.677v37.258h-8.51V54.904z"/>
		<path fill="#0070BA" d="M193.903,78.299V60.18h1.096c0.911,0,1.579,0.789,1.579,2.123v13.869c0,1.337-0.668,2.128-1.579,2.128
			H193.903z M185.396,97.438h8.507V82.976h4.86c5.957,0,6.321-4.619,6.321-7.595V62.499c0-2.979-0.364-7.595-6.321-7.595h-13.367
			V97.438z"/>
		<path fill="#0070BA" d="M220.398,90.559c0,0.73-0.545,1.398-1.335,1.398c-0.489,0-1.339-0.305-1.339-1.398V61.576
			c0-1.093,0.85-1.396,1.339-1.396c0.79,0,1.335,0.668,1.335,1.396V90.559z M209.217,89.843c0,2.976,0.366,7.595,6.32,7.595h7.049
			c5.953,0,6.32-4.619,6.32-7.595V62.499c0-2.979-0.367-7.595-6.32-7.595h-7.049c-5.955,0-6.32,4.616-6.32,7.595V89.843z"/>
		<path fill="#0070BA" d="M255.406,54.904h11.059v42.533h-8.508V70.764h-0.303l-4.375,26.673h-6.807L242.1,70.764h-0.307v26.673
			h-8.506V54.904h11.058l5.53,29.895L255.406,54.904z"/>
	</g>
	<g>
		<path fill="#0070BA" d="M106.657,126.496h-1.054v4.486h0.956c1.594,0,2.06-0.611,2.06-2.205
			C108.619,127.305,108.153,126.496,106.657,126.496z"/>
		<path fill="#0070BA" d="M108.521,121.347c0-1.03-0.466-1.643-1.667-1.643h-1.25v3.629h1.25
			C108.055,123.333,108.521,122.745,108.521,121.347z"/>
		<polygon fill="#0070BA" points="232.522,119.705 231.418,127.451 233.675,127.451 232.547,119.705 		"/>
		<path fill="#0070BA" d="M95.663,110.644v29.325h170.794v-29.325H95.663z M107.417,134.146h-5.909v-17.605h6.767
			c2.06,0,4.34,1.251,4.34,4.414c0,2.401-1.471,3.53-2.403,3.727c1.643,0.687,2.574,1.814,2.574,4.265
			C112.786,132.232,111.021,134.146,107.417,134.146z M138.528,134.146h-4.241v-7.479h-2.771v7.479h-4.242v-17.605h4.242v6.792
			h2.771v-6.792h4.241V134.146z M164.271,134.146h-4.045v-4.096c0-1.889,0.589-4.756,0.785-6.62h-0.025l-3.653,10.715h-4.118
			v-17.605h4.045v4.365c0,1.936-0.54,4.755-0.638,6.693h0.024l3.58-11.058h4.045V134.146z M190.012,134.146h-4.046v-4.096
			c0-1.889,0.589-4.756,0.785-6.62h-0.024l-3.653,10.715h-4.119v-17.605H183v4.365c0,1.936-0.54,4.755-0.638,6.693h0.024
			l3.58-11.058h4.046V134.146z M214.552,119.876h-5.615v14.27h-4.241v-17.605h9.856V119.876z M234.876,134.146l-0.638-3.531h-3.236
			l-0.539,3.531h-4.217l3.824-17.605h5.075l3.898,17.605H234.876z M255.592,134.563c-2.623,0-5.565-1.152-5.565-5.689h3.897
			c0,1.963,0.564,2.525,1.496,2.525c1.104,0,1.545-0.563,1.545-2.525c0-1.641-0.516-2.305-1.863-2.305h-0.613v-3.163h1.006
			c0.613,0,1.274-0.686,1.274-1.936c0-1.323-0.417-2.157-1.422-2.157c-1.079,0-1.423,0.784-1.423,2.598h-3.897
			c0-3.652,2.28-5.761,5.32-5.761c3.358,0,5.246,2.182,5.246,4.658c0,2.182-0.71,3.286-2.5,4.07h0.048
			c1.791,0.663,3.065,1.397,3.065,4.559C261.206,132.92,258.95,134.563,255.592,134.563z"/>
	</g>
</g>
</svg>
